<svg id="visual" viewBox="0 0 900 600" width="900" height="600" xmlns="http://www.w3.org/2000/svg" xmlns:xlink="http://www.w3.org/1999/xlink" version="1.1"><rect width="900" height="600" fill="#001829"></rect><g><g transform="translate(500 528)"><path d="M0 -85.9L60.7 -60.7L85.9 0L60.7 60.7L0 85.9L-60.7 60.7L-85.9 0L-60.7 -60.7Z" fill="none" stroke="#297EA6" stroke-width="2"></path></g><g transform="translate(761 405)"><path d="M0 -77L54.4 -54.4L77 0L54.4 54.4L0 77L-54.4 54.4L-77 0L-54.4 -54.4Z" fill="none" stroke="#297EA6" stroke-width="2"></path></g><g transform="translate(194 540)"><path d="M0 -58L41 -41L58 0L41 41L0 58L-41 41L-58 0L-41 -41Z" stroke="#297EA6" fill="none" stroke-width="2"></path></g><g transform="translate(410 255)"><path d="M0 -60L42.4 -42.4L60 0L42.4 42.4L0 60L-42.4 42.4L-60 0L-42.4 -42.4Z" stroke="#297EA6" fill="none" stroke-width="2"></path></g><g transform="translate(5 259)"><path d="M0 -66L46.7 -46.7L66 0L46.7 46.7L0 66L-46.7 46.7L-66 0L-46.7 -46.7Z" stroke="#297EA6" fill="none" stroke-width="2"></path></g><g transform="translate(875 203)"><path d="M0 -81L57.3 -57.3L81 0L57.3 57.3L0 81L-57.3 57.3L-81 0L-57.3 -57.3Z" stroke="#297EA6" fill="none" stroke-width="2"></path></g><g transform="translate(598 168)"><path d="M0 -57L40.3 -40.3L57 0L40.3 40.3L0 57L-40.3 40.3L-57 0L-40.3 -40.3Z" stroke="#297EA6" fill="none" stroke-width="2"></path></g><g transform="translate(333 97)"><path d="M0 -84L59.4 -59.4L84 0L59.4 59.4L0 84L-59.4 59.4L-84 0L-59.4 -59.4Z" stroke="#297EA6" fill="none" stroke-width="2"></path></g></g></svg>